<svg xmlns="http://www.w3.org/2000/svg" viewBox="0 0 100 100">
  <!-- Left and Right Pedestals -->
  <path d="M 18 85 H 32 V 88 H 18 Z M 68 85 H 82 V 88 H 68 Z" fill="none" stroke="currentColor" stroke-width="1.5"/>
  <!-- Left Pillar -->
  <path d="M 22 45 H 28 V 85 H 22 Z" fill="none" stroke="currentColor" stroke-width="1.5" stroke-linejoin="round"/>
  <!-- Right Pillar -->
  <path d="M 72 45 H 78 V 85 H 72 Z" fill="none" stroke="currentColor" stroke-width="1.5" stroke-linejoin="round"/>
  <!-- Lower crossbeam -->
  <path d="M 14 45 H 86 V 40 H 14 Z" fill="none" stroke="currentColor" stroke-width="1.5" stroke-linejoin="round"/>
  <!-- Upper crossbeam -->
  <path d="M 14 34 H 86 V 29 H 14 Z" fill="none" stroke="currentColor" stroke-width="1.5" stroke-linejoin="round"/>
  <!-- Brackets and side motifs -->
  <path d="M 14 45 L 22 53 M 86 45 L 78 53" fill="none" stroke="currentColor" stroke-width="1.5"/>
  <path d="M 14 40 L 22 34 M 86 40 L 78 34" fill="none" stroke="currentColor" stroke-width="1.2"/>
  <!-- Torana Arch under the beam -->
  <path d="M 28 45 C 32 30 68 30 72 45" fill="none" stroke="currentColor" stroke-width="1.5"/>
  <path d="M 33 45 C 36 36 64 36 67 45" fill="none" stroke="currentColor" stroke-width="1"/>
  <!-- Top central crown/finial -->
  <path d="M 44 29 L 50 18 L 56 29 Z" fill="none" stroke="currentColor" stroke-width="1.5" stroke-linejoin="round"/>
  <circle cx="50" cy="15" r="2" fill="currentColor"/>
  <!-- Left and Right top finials -->
  <path d="M 22 29 V 24 H 28 V 29" fill="none" stroke="currentColor" stroke-width="1.2"/>
  <path d="M 72 29 V 24 H 78 V 29" fill="none" stroke="currentColor" stroke-width="1.2"/>
</svg>
